<?xml version="1.0" encoding="utf-8"?>
<!-- Generator: Adobe Illustrator 15.0.2, SVG Export Plug-In . SVG Version: 6.00 Build 0)  -->
<!DOCTYPE svg PUBLIC "-//W3C//DTD SVG 1.1//EN" "http://www.w3.org/Graphics/SVG/1.1/DTD/svg11.dtd">
<svg version="1.1" id="Ebene_1" xmlns="http://www.w3.org/2000/svg" xmlns:xlink="http://www.w3.org/1999/xlink" x="0px" y="0px"
	 width="500px" height="500px" viewBox="0 0 500 500" enable-background="new 0 0 500 500" xml:space="preserve">
<path d="M433.018,149.751c-2.017-2.852-4.702-4.282-8.062-4.282c-4.531,0-9.907,0.928-16.118,2.769
	c-8.906,3.022-20.571,5.962-35.015,8.818c-6.377-5.708-13.853-11.25-22.412-16.626l-9.575-3.525
	c-8.228-3.022-14.106-4.868-17.632-5.542c-7.559-1.343-16.538-2.012-26.948-2.012c-25.864,0-46.978,4.238-63.35,12.715
	c-9.199,4.766-17.305,10.898-24.307,18.394c-5.615-6.421-12.91-12.769-21.919-19.033c-6.548-4.531-14.697-8.013-24.434-10.444
	c-9.741-2.432-22.5-3.647-38.286-3.647c-6.885,0-15.869,1.597-26.948,4.785c-8.564,2.524-18.179,7.656-28.843,15.386
	c-10.664,7.734-20.698,18.491-30.103,32.275c-3.359,4.707-7.222,14.209-11.587,28.501c-2.354,11.768-3.525,24.966-3.525,39.59
	c0,7.734,2.1,17.988,6.299,30.762c3.188,9.756,8.062,19.253,14.609,28.496c6.548,9.248,14.355,16.982,23.428,23.203
	c9.067,6.221,19.224,10.845,30.474,13.867c8.398,2.354,19.229,3.53,32.495,3.53c15.991,0,30.732-2.422,44.224-7.261
	c1.782,5.4,5.005,10.469,9.678,15.195c7.563,7.642,22.671,14.316,45.342,20.024c-27.202,9.067-44.038,16.836-50.498,23.296
	c-6.47,6.465-9.702,13.813-9.702,22.046c0,8.394,3.862,16.284,11.587,23.677c10.073,9.907,23.97,17.036,41.689,21.406
	c17.715,4.365,37.734,6.553,60.073,6.553c20.654,0,40.005-2.354,58.062-7.056c18.047-4.697,31.86-10.034,41.436-15.996
	c9.57-5.957,17.163-13.687,22.793-23.169c5.625-9.487,8.438-19.185,8.438-29.092c0-18.477-7.979-34.092-23.931-46.855
	c-16.118-12.754-44.248-19.141-84.38-19.141c-2.012,0-4.448,0.088-7.305,0.254c-10.078,0.503-16.035,0.757-17.881,0.757
	c-14.78,0-26.621-0.337-35.518-1.011c-2.354-0.503-4.199-0.84-5.542-1.006c-6.89-1.006-11.802-2.856-14.736-5.542
	c-2.939-2.686-4.409-5.708-4.409-9.067c0-3.691,1.426-6.885,4.282-9.57c5.708-5.547,15.703-12.261,29.976-20.151
	c10.576,2.354,18.804,3.862,24.688,4.531c4.028,0.503,11.582,0.757,22.666,0.757c17.295,0,34.59-4.619,51.89-13.853
	c12.422-6.548,22.207-15.405,29.346-26.572c7.134-11.167,10.703-22.881,10.703-35.142c0-10.41-2.012-21.406-6.045-32.998
	c6.885,0.342,16.035,3.11,27.456,8.315c4.868,2.354,7.808,3.525,8.813,3.525c2.686,0,5.293-1.802,7.813-5.415
	c2.515-3.608,3.774-10.034,3.774-19.268C436.04,159.321,435.034,152.607,433.018,149.751z M284.912,383.501l30.981,0.503
	c14.106,0,25.439,0.835,34.004,2.52c6.045,1.338,11.465,3.73,16.245,7.178c4.785,3.438,8.101,6.924,9.951,10.449
	c1.846,3.525,2.769,7.139,2.769,10.835c0,6.709-4.365,13.511-13.096,20.4c-13.774,10.576-33.086,17.29-57.935,20.151
	c-8.062,0.669-14.102,1.006-18.135,1.006c-14.106,0-27.29-1.68-39.546-5.034c-12.261-3.364-20.991-7.935-26.196-13.73
	c-5.21-5.796-7.808-11.631-7.808-17.505c0-11.084,4.658-19.985,13.979-26.699C239.448,386.855,257.71,383.501,284.912,383.501z
	 M99.019,158.062c9.067-9.907,19.224-14.858,30.479-14.858c7.554,0,15.024,2.402,22.417,7.212
	c7.388,4.81,12.847,11.514,16.372,20.117s5.371,17.632,5.542,27.075c-3.022-0.127-5.288-0.19-6.802-0.19
	c-2.012,0-5.459,0.234-10.327,0.693c-6.719,0.503-11.924,0.757-15.615,0.757l-57.432-0.503
	C84.829,181.406,89.951,167.974,99.019,158.062z M215.762,289.81c-0.005,0-0.005,0-0.005,0c-0.005,0.005-0.005,0.01-0.01,0.01
	c-6.699,3.906-12.485,7.354-17.354,10.327c-1.865,1.025-3.638,1.919-5.293,2.622c-6.138,2.607-13.228,4.746-21.289,6.426
	c-4.37,0.84-13.179,3.301-25.942,1.255c-3.799-0.605-14.609-4.795-14.609-4.795c-6.885-2.358-13.56-6.23-20.024-11.621
	c-6.465-5.381-11.885-11.821-16.245-19.316c-4.37-7.49-7.646-16.162-9.824-26.011c-2.188-9.849-3.276-19.238-3.276-28.159
	c0-1.689,0.166-3.706,0.503-6.064h21.665c16.958-0.332,26.025-0.503,27.202-0.503c3.691,0,10.41,0.425,20.151,1.26
	c15.84,0.894,28.281,1.509,37.368,1.86c0.601,10.825,4.595,21.792,12.002,32.9c6.211,9.238,17.632,18.809,34.253,28.716
	C227.939,282.759,221.514,286.455,215.762,289.81z M322.319,259.946c-7.979,9.658-17.598,14.487-28.843,14.487
	c-5.713,0-11.382-1.138-17.002-3.398c-5.63-2.271-10.117-5.205-13.477-8.818c-3.359-3.608-6.465-8.691-9.321-15.239
	c-2.017-4.194-3.271-9.15-3.774-14.863c-1.182-13.433-1.768-22.417-1.768-26.953c0-16.621,3.315-29.883,9.951-39.795
	c6.631-9.907,13.979-15.615,22.041-17.129c7.217-0.835,11.665-1.26,13.35-1.26c12.925,0,22.959,4.619,30.098,13.853
	c7.139,9.243,10.708,27.295,10.708,54.155C334.282,235.308,330.293,250.293,322.319,259.946z"/>
</svg>
